<svg width="1441" height="971" viewBox="0 0 1441 971" fill="none" xmlns="http://www.w3.org/2000/svg">
<path d="M1160 787.5L1 970.5V0H1441L1160 787.5Z" fill="#43A164"/>
<path d="M1 966C123 887 149.467 968 133.5 905.5C117.15 841.5 201.539 863.685 74 799C-30.5 746 119 706 1 699" stroke="white"/>
<path d="M144.5 852.5C266.5 773.5 313.5 931.5 306 872C297.158 801.855 225 805.5 246.5 765.5C301.974 662.292 635 703.5 724.5 712" stroke="white"/>
<path d="M1017 825C1080.33 781.667 565.5 767.5 723 601C875.125 440.182 800.528 297.998 832 158.5C850.5 76.5001 1176 108.5 1284 185.5" stroke="white"/>
<path d="M759.16 535.382L766.128 546.629L779.202 548.66L767.955 555.628L765.924 568.702L758.956 557.455L745.882 555.424L757.129 548.456L759.16 535.382Z" fill="white"/>
<path d="M742.585 709.503L750.946 719.757L764.172 720.085L753.918 728.446L753.591 741.672L745.23 731.418L732.003 731.091L742.257 722.73L742.585 709.503Z" fill="#FCB833"/>
<path d="M326.827 700.547L325.433 713.704L334.513 723.327L321.356 721.933L311.733 731.013L313.127 717.856L304.047 708.233L317.204 709.627L326.827 700.547Z" fill="#FCB833"/>
<path d="M34.5847 720.503L42.9457 730.757L56.1724 731.085L45.9183 739.446L45.5906 752.672L37.2296 742.418L24.003 742.091L34.257 733.73L34.5847 720.503Z" fill="#FCB833"/>
<path d="M832.963 131.238L840.503 142.11L853.665 143.463L842.793 151.003L841.44 164.165L833.9 153.293L820.738 151.94L831.61 144.4L832.963 131.238Z" fill="#FCB833"/>
<path d="M1120.22 138.945L1110.04 130.495L1097 132.722L1105.45 122.542L1103.22 109.5L1113.4 117.95L1126.44 115.722L1117.99 125.903L1120.22 138.945Z" fill="white"/>
<circle cx="791.5" cy="503" r="4" fill="#FCB833"/>
<circle cx="860.5" cy="129" r="4" fill="white"/>
<circle cx="1140.5" cy="130" r="4" fill="#FCB833"/>
<circle cx="725.5" cy="713" r="4" fill="white"/>
<circle cx="274.5" cy="815" r="4" fill="white"/>
<circle cx="75.5" cy="799" r="4" fill="white"/>
<circle cx="134.5" cy="931" r="4" fill="white"/>
<circle cx="145.5" cy="851" r="4" fill="#FCB833"/>
<circle cx="556.5" cy="698" r="4" fill="white"/>
</svg>
